<svg width="40.000000" height="40.000000" viewBox="0 0 40 40" fill="none" xmlns="http://www.w3.org/2000/svg" xmlns:xlink="http://www.w3.org/1999/xlink">
	<desc>
			Created with Pixso.
	</desc>
	<defs>
		<linearGradient id="paint_linear_27_8347_0" x1="9.463987" y1="11.839289" x2="30.000002" y2="21.535723" gradientUnits="userSpaceOnUse">
			<stop stop-color="#C09E6C"/>
			<stop offset="0.426246" stop-color="#FFEBCC"/>
			<stop offset="1.000000" stop-color="#BF936B"/>
		</linearGradient>
	</defs>
	<rect id="Rectangle 1" rx="20.000000" width="40.000000" height="40.000000" fill="#37332F" fill-opacity="1.000000"/>
	<path id="02 opened" d="M23.0293 21.1035L30 16.1855L30 25.0352C29.9985 25.3242 29.9268 25.6094 29.79 25.8711L23.0293 21.1035ZM18.1431 20.2773L18.6934 19.8887C19.0684 19.625 19.5273 19.4805 20 19.4805C20.4727 19.4805 20.9316 19.625 21.3066 19.8887L21.8569 20.2773L29.2856 15.0352L21.3066 9.40625C20.9316 9.14258 20.4722 9 20 9C19.5278 9 19.0684 9.14258 18.6934 9.40625L10.7144 15.0352L18.1431 20.2773ZM10 16.1855L10 25.0352C10.0015 25.3242 10.0728 25.6094 10.2095 25.8711L16.9707 21.1035L10 16.1855ZM20.4351 20.9277C20.3101 20.8398 20.1572 20.791 19.9995 20.791C19.8423 20.791 19.689 20.8398 19.5645 20.9277L11.231 26.8027C11.5146 26.9316 11.8267 26.998 12.1431 27L27.8569 27C28.1738 26.998 28.4858 26.9297 28.7705 26.8027L20.4351 20.9277Z" fill="url(#paint_linear_27_8347_0)" fill-opacity="1.000000" fill-rule="nonzero"/>
</svg>
