<svg width="40.000000" height="40.000000" viewBox="0 0 40 40" fill="none" xmlns="http://www.w3.org/2000/svg" xmlns:xlink="http://www.w3.org/1999/xlink">
	<desc>
			Created with Pixso.
	</desc>
	<defs>
		<clipPath id="clip27_8356">
			<rect id="Component 3" width="40.000000" height="40.000000" fill="white" fill-opacity="0"/>
		</clipPath>
		<linearGradient id="paint_linear_27_8354_0" x1="7.356786" y1="11.785713" x2="31.999996" y2="24.714294" gradientUnits="userSpaceOnUse">
			<stop stop-color="#C09E6C"/>
			<stop offset="0.426246" stop-color="#FFEBCC"/>
			<stop offset="1.000000" stop-color="#BF936B"/>
		</linearGradient>
	</defs>
	<rect id="Component 3" width="40.000000" height="40.000000" fill="#FFFFFF" fill-opacity="0"/>
	<g clip-path="url(#clip27_8356)">
		<rect id="Rectangle 1" rx="20.000000" width="40.000000" height="40.000000" fill="#37332F" fill-opacity="1.000000"/>
		<path id="Vector" d="M29 30.0918L29 8.5C29 8.22461 28.7764 8 28.5 8L16.8433 8C16.5669 8 16.3433 8.22461 16.3433 8.5L16.3433 12.5469C16.3433 12.8223 16.1191 13.0469 15.8433 13.0469L11.5 13.0469C11.2236 13.0469 11 13.2695 11 13.5469L11 30.0918C11 30.3691 10.7759 30.5918 10.5 30.5918L8.5 30.5918C8.22363 30.5918 8 30.8164 8 31.0918L8 31.5C8 31.7754 8.22363 32 8.5 32L31.5 32C31.7764 32 32 31.7754 32 31.5L32 31.0918C32 30.8164 31.7764 30.5918 31.5 30.5918L29.5 30.5918C29.2241 30.5918 29 30.3691 29 30.0918ZM14.5776 28.1367L13.5 28.1367C13.2236 28.1367 13 27.9141 13 27.6367L13 26.6328C13 26.3574 13.2236 26.1328 13.5 26.1328L14.5776 26.1328C14.854 26.1328 15.0776 26.3574 15.0776 26.6328L15.0776 27.6367C15.0776 27.9141 14.854 28.1367 14.5776 28.1367ZM14.5776 24.7266L13.5 24.7266C13.2236 24.7266 13 24.502 13 24.2266L13 23.2227C13 22.9453 13.2236 22.7227 13.5 22.7227L14.5776 22.7227C14.854 22.7227 15.0776 22.9453 15.0776 23.2227L15.0776 24.2266C15.0776 24.502 14.854 24.7266 14.5776 24.7266ZM14.5776 21.3145L13.5 21.3145C13.2236 21.3145 13 21.0898 13 20.8145L13 19.8105C13 19.5332 13.2236 19.3105 13.5 19.3105L14.5776 19.3105C14.854 19.3105 15.0776 19.5332 15.0776 19.8105L15.0776 20.8145C15.0776 21.0898 14.854 21.3145 14.5776 21.3145ZM14.5776 17.9023L13.5 17.9023C13.2236 17.9023 13 17.6777 13 17.4023L13 15.3984C13 15.1211 13.2236 14.8984 13.5 14.8984L14.5776 14.8984C14.854 14.8984 15.0776 15.1211 15.0776 15.3984L15.0776 17.4023C15.0776 17.6777 14.854 17.9023 14.5776 17.9023ZM20.062 28.8809L19 28.8809C18.7236 28.8809 18.5 28.6562 18.5 28.3809L18.5 26.9395C18.5 26.6641 18.7236 26.4395 19 26.4395L20.062 26.4395C20.3384 26.4395 20.562 26.6641 20.562 26.9395L20.562 28.3809C20.562 28.6562 20.3384 28.8809 20.062 28.8809ZM20.062 25.0332L19 25.0332C18.7236 25.0332 18.5 24.8086 18.5 24.5332L18.5 23.0918C18.5 22.8164 18.7236 22.5918 19 22.5918L20.062 22.5918C20.3384 22.5918 20.562 22.8164 20.562 23.0918L20.562 24.5332C20.562 24.8086 20.3384 25.0332 20.062 25.0332ZM20.062 21.1855L19 21.1855C18.7236 21.1855 18.5 20.9609 18.5 20.6855L18.5 19.2441C18.5 18.9688 18.7236 18.7441 19 18.7441L20.062 18.7441C20.3384 18.7441 20.562 18.9688 20.562 19.2441L20.562 20.6855C20.562 20.9609 20.3384 21.1855 20.062 21.1855ZM20.062 17.3379L19 17.3379C18.7236 17.3379 18.5 17.1133 18.5 16.8379L18.5 15.3984C18.5 15.1211 18.7236 14.8984 19 14.8984L20.062 14.8984C20.3384 14.8984 20.562 15.1211 20.562 15.3984L20.562 16.8379C20.562 17.1133 20.3384 17.3379 20.062 17.3379ZM20.062 13.4902L19 13.4902C18.7236 13.4902 18.5 13.2656 18.5 12.9902L18.5 11.5508C18.5 11.2734 18.7236 11.0508 19 11.0508L20.062 11.0508C20.3384 11.0508 20.562 11.2734 20.562 11.5508L20.562 12.9902C20.562 13.2656 20.3384 13.4902 20.062 13.4902ZM23.5 31.2969L22 31.2969C21.7236 31.2969 21.5 31.0723 21.5 30.7969L21.5 26.9395C21.5 26.6641 21.7236 26.4395 22 26.4395L23.5 26.4395C23.7764 26.4395 24 26.6641 24 26.9395L24 30.7969C24 31.0723 23.7764 31.2969 23.5 31.2969ZM23.5 25.0332L22 25.0332C21.7236 25.0332 21.5 24.8086 21.5 24.5332L21.5 23.0918C21.5 22.8164 21.7236 22.5918 22 22.5918L23.5 22.5918C23.7764 22.5918 24 22.8164 24 23.0918L24 24.5332C24 24.8086 23.7764 25.0332 23.5 25.0332ZM23.5 21.1855L22 21.1855C21.7236 21.1855 21.5 20.9609 21.5 20.6855L21.5 19.2441C21.5 18.9688 21.7236 18.7441 22 18.7441L23.5 18.7441C23.7764 18.7441 24 18.9688 24 19.2441L24 20.6855C24 20.9609 23.7764 21.1855 23.5 21.1855ZM23.5 17.3379L22 17.3379C21.7236 17.3379 21.5 17.1133 21.5 16.8379L21.5 15.3984C21.5 15.1211 21.7236 14.8984 22 14.8984L23.5 14.8984C23.7764 14.8984 24 15.1211 24 15.3984L24 16.8379C24 17.1133 23.7764 17.3379 23.5 17.3379ZM23.5 13.4902L22 13.4902C21.7236 13.4902 21.5 13.2656 21.5 12.9902L21.5 11.5508C21.5 11.2734 21.7236 11.0508 22 11.0508L23.5 11.0508C23.7764 11.0508 24 11.2734 24 11.5508L24 12.9902C24 13.2656 23.7764 13.4902 23.5 13.4902ZM26.5112 28.8418L25.2925 28.8691C25.0122 28.8691 24.7812 28.6484 24.7812 28.3691L24.7812 26.9297C24.7812 26.6562 24.9985 26.4297 25.27 26.4297L26.4888 26.4023C26.769 26.4023 27 26.6211 27 26.9023L27 28.3418C27 28.6133 26.7827 28.8418 26.5112 28.8418ZM26.5112 24.9941L25.2925 25.0215C25.0122 25.0215 24.7812 24.8008 24.7812 24.5215L24.7812 23.082C24.7812 22.8105 24.9985 22.582 25.27 22.582L26.4888 22.5547C26.769 22.5547 27 22.7734 27 23.0547L27 24.4941C27 24.7656 26.7827 24.9941 26.5112 24.9941ZM26.5112 21.1465L25.2925 21.1738C25.0122 21.1738 24.7812 20.9531 24.7812 20.6738L24.7812 19.2344C24.7812 18.9629 24.9985 18.7344 25.27 18.7344L26.4888 18.707C26.769 18.707 27 18.9258 27 19.207L27 20.6465C27 20.918 26.7827 21.1465 26.5112 21.1465ZM26.5112 17.2988L25.2925 17.3262C25.0122 17.3262 24.7812 17.1074 24.7812 16.8262L24.7812 15.3867C24.7812 15.1152 24.9985 14.8867 25.27 14.8867L26.4888 14.8594C26.769 14.8594 27 15.0781 27 15.3594L27 16.7988C27 17.0703 26.7827 17.2988 26.5112 17.2988ZM26.5112 13.4512L25.2925 13.4785C25.0122 13.4785 24.7812 13.2598 24.7812 12.9785L24.7812 11.5391C24.7812 11.2676 24.9985 11.0391 25.27 11.0391L26.4888 11.0117C26.769 11.0117 27 11.2305 27 11.5117L27 12.9512C27 13.2227 26.7827 13.4512 26.5112 13.4512Z" fill="url(#paint_linear_27_8354_0)" fill-opacity="1.000000" fill-rule="nonzero"/>
	</g>
</svg>
