<svg width="40.000000" height="40.000000" viewBox="0 0 40 40" fill="none" xmlns="http://www.w3.org/2000/svg" xmlns:xlink="http://www.w3.org/1999/xlink">
	<desc>
			Created with Pixso.
	</desc>
	<defs>
		<linearGradient id="paint_linear_27_8336_0" x1="-1.072025" y1="6.309525" x2="40.000000" y2="27.857155" gradientUnits="userSpaceOnUse">
			<stop stop-color="#C09E6C"/>
			<stop offset="0.426246" stop-color="#FFEBCC"/>
			<stop offset="1.000000" stop-color="#BF936B"/>
		</linearGradient>
	</defs>
	<rect id="Rectangle 1" rx="20.000000" width="40.000000" height="40.000000" fill="url(#paint_linear_27_8336_0)" fill-opacity="1.000000"/>
	<path id="Vector" d="M27.9268 12.0625C25.9512 10.0938 23.3169 9 20.5366 9C14.7559 9 10.0732 13.666 10.0732 19.4277C10.0732 21.25 10.5854 23.0723 11.4634 24.6035L10 30L15.561 28.541C17.0977 29.3438 18.7803 29.7812 20.5366 29.7812C26.3169 29.7812 31 25.1152 31 19.3535C30.9268 16.6562 29.9023 14.0312 27.9268 12.0625ZM25.5854 23.1465C25.3657 23.7285 24.3413 24.3125 23.8291 24.3848C23.3901 24.459 22.8047 24.459 22.2197 24.3125C21.8535 24.166 21.3413 24.0215 20.7559 23.7285C18.1221 22.6348 16.439 20.0098 16.2925 19.791C16.1465 19.6465 15.1953 18.4062 15.1953 17.0938C15.1953 15.7812 15.8535 15.1973 16.0732 14.9062C16.2925 14.6152 16.5854 14.6152 16.8047 14.6152C16.9512 14.6152 17.1709 14.6152 17.3169 14.6152C17.4634 14.6152 17.6831 14.541 17.9023 15.0527C18.1221 15.5625 18.6343 16.875 18.7075 16.9473C18.7803 17.0938 18.7803 17.2402 18.7075 17.3848C18.6343 17.5312 18.561 17.6777 18.4146 17.8223C18.2681 17.9688 18.1221 18.1875 18.0488 18.2598C17.9023 18.4062 17.7559 18.5527 17.9023 18.7715C18.0488 19.0625 18.561 19.8652 19.3657 20.5938C20.3901 21.4688 21.1953 21.7598 21.4878 21.9062C21.7803 22.0527 21.9268 21.9785 22.0732 21.834C22.2197 21.6875 22.7319 21.1035 22.8779 20.8125C23.0244 20.5215 23.2441 20.5938 23.4634 20.666C23.6831 20.7402 25 21.3965 25.2197 21.541C25.5122 21.6875 25.6587 21.7598 25.7319 21.834C25.8047 22.0527 25.8047 22.5625 25.5854 23.1465Z" fill="#000000" fill-opacity="1.000000" fill-rule="nonzero"/>
</svg>
